<svg width="680" height="278" viewBox="0 0 680 278" fill="none" xmlns="http://www.w3.org/2000/svg">
<g filter="url(#filter0_d_541_52)">
<path d="M331 85L357 109.112L331 133.224L317.711 120.888L331 108.551" stroke="white"/>
<path d="M331 145L305 120.888L331 96.7758L343.711 109.112L331 121.449" stroke="white"/>
</g>
<ellipse cx="340.154" cy="153.829" rx="203.942" ry="124.171" fill="url(#paint0_radial_541_52)"/>
<circle cx="331.124" cy="115.448" r="67.7299" fill="url(#paint1_linear_541_52)"/>
<path d="M662.5 155.71C662.5 169.447 653.38 182.63 636.656 194.703C619.944 206.768 595.728 217.654 565.76 226.804C505.829 245.103 423.006 256.428 331.5 256.428C239.994 256.428 157.171 245.103 97.2401 226.804C67.2718 217.654 43.0561 206.768 26.3436 194.703C9.61948 182.63 0.5 169.447 0.5 155.71C0.5 141.973 9.61948 128.79 26.3436 116.717C43.0561 104.652 67.2718 93.7663 97.2401 84.6159C157.171 66.317 239.994 54.9915 331.5 54.9915C423.006 54.9915 505.829 66.317 565.76 84.6159C595.728 93.7663 619.944 104.652 636.656 116.717C653.38 128.79 662.5 141.973 662.5 155.71Z" stroke="url(#paint2_linear_541_52)"/>
<path d="M621.862 155.71C621.862 169.478 613.938 182.664 599.451 194.724C584.966 206.782 563.977 217.663 537.996 226.811C486.04 245.104 414.23 256.428 334.886 256.428C255.543 256.428 183.733 245.104 131.777 226.811C105.796 217.663 84.8066 206.782 70.322 194.724C55.8346 182.664 47.9109 169.478 47.9109 155.71C47.9109 141.942 55.8346 128.755 70.322 116.695C84.8066 104.638 105.796 93.7569 131.777 84.6093C183.733 66.3156 255.543 54.9915 334.886 54.9915C414.23 54.9915 486.04 66.3156 537.996 84.6093C563.977 93.7569 584.966 104.638 599.451 116.695C613.938 128.755 621.862 141.942 621.862 155.71Z" stroke="url(#paint3_linear_541_52)"/>
<path d="M603.801 155.71C603.801 169.497 596.584 182.687 583.412 194.74C570.241 206.793 551.153 217.671 527.525 226.816C480.271 245.105 414.957 256.428 342.788 256.428C270.619 256.428 205.305 245.105 158.052 226.816C134.423 217.671 115.336 206.793 102.164 194.74C88.9931 182.687 81.7758 169.497 81.7758 155.71C81.7758 141.923 88.9931 128.733 102.164 116.68C115.336 104.627 134.423 93.7493 158.052 84.604C205.305 66.3144 270.619 54.9915 342.788 54.9915C414.957 54.9915 480.271 66.3144 527.525 84.604C551.153 93.7493 570.241 104.627 583.412 116.68C596.584 128.733 603.801 141.923 603.801 155.71Z" stroke="url(#paint4_linear_541_52)"/>
<path d="M449.527 103.784C449.527 160.607 398.252 206.76 334.886 206.76C271.521 206.76 220.246 160.607 220.246 103.784C220.246 46.9605 271.521 0.807617 334.886 0.807617C398.252 0.807617 449.527 46.9605 449.527 103.784Z" stroke="url(#paint5_linear_541_52)"/>
<path d="M445.012 130.499C445.012 147.276 432.774 162.57 412.757 173.698C392.757 184.816 365.094 191.709 334.51 191.709C303.927 191.709 276.263 184.816 256.263 173.698C236.246 162.57 224.009 147.276 224.009 130.499C224.009 113.723 236.246 98.4293 256.263 87.3013C276.263 76.1827 303.927 69.29 334.51 69.29C365.094 69.29 392.757 76.1827 412.757 87.3013C432.774 98.4293 445.012 113.723 445.012 130.499Z" stroke="url(#paint6_linear_541_52)"/>
<path d="M36.9456 215.554C40.2293 215.554 42.8913 214.538 42.8913 213.284C42.8913 212.03 40.2293 211.014 36.9456 211.014C33.662 211.014 31 212.03 31 213.284C31 214.538 33.662 215.554 36.9456 215.554Z" stroke="#763CAC"/>
<path d="M34.9796 214.419C36.6215 217.263 38.8327 219.06 39.9185 218.433C41.0043 217.806 40.5535 214.993 38.9117 212.149C37.2698 209.305 35.0586 207.508 33.9728 208.135C32.887 208.762 33.3378 211.575 34.9796 214.419Z" stroke="#763CAC"/>
<path d="M34.9797 212.149C33.3378 214.993 32.8871 217.806 33.9729 218.433C35.0587 219.06 37.2699 217.263 38.9117 214.419C40.5535 211.575 41.0043 208.762 39.9185 208.135C38.8327 207.508 36.6215 209.305 34.9797 212.149Z" stroke="#763CAC"/>
<path d="M36.9456 214.392C37.5576 214.392 38.0537 213.896 38.0537 213.284C38.0537 212.672 37.5576 212.176 36.9456 212.176C36.3337 212.176 35.8376 212.672 35.8376 213.284C35.8376 213.896 36.3337 214.392 36.9456 214.392Z" fill="#763CAC"/>
<path d="M113.797 180.663C112.629 178.993 110.323 178.497 108.656 179.559L105.727 181.425C105.53 181.549 105.347 181.693 105.179 181.854C105.012 182.016 104.862 182.195 104.732 182.388C104.601 182.581 104.491 182.786 104.404 183.002C104.316 183.217 104.251 183.441 104.209 183.67C104.175 183.862 104.156 184.057 104.153 184.252C104.151 184.448 104.164 184.643 104.194 184.835C104.223 185.028 104.269 185.219 104.33 185.404C104.391 185.59 104.467 185.77 104.557 185.942C104.495 186.037 104.437 186.135 104.385 186.236C104.332 186.336 104.285 186.439 104.243 186.545C104.2 186.65 104.164 186.757 104.132 186.866C104.101 186.975 104.076 187.086 104.055 187.198C103.972 187.667 103.983 188.148 104.088 188.613C104.14 188.845 104.216 189.071 104.313 189.288C104.41 189.505 104.529 189.712 104.667 189.905C105.835 191.576 108.141 192.071 109.809 191.009L112.737 189.151C112.934 189.027 113.117 188.883 113.285 188.721C113.452 188.559 113.602 188.38 113.732 188.188C113.862 187.995 113.972 187.789 114.06 187.574C114.148 187.359 114.213 187.135 114.255 186.906C114.29 186.714 114.308 186.519 114.311 186.324C114.313 186.129 114.3 185.934 114.27 185.741C114.24 185.548 114.195 185.358 114.134 185.173C114.073 184.988 113.997 184.808 113.906 184.635C113.968 184.54 114.026 184.442 114.079 184.342C114.131 184.241 114.179 184.138 114.221 184.033C114.263 183.927 114.3 183.82 114.331 183.711C114.363 183.602 114.389 183.491 114.409 183.38C114.451 183.146 114.469 182.908 114.463 182.67C114.458 182.432 114.429 182.196 114.376 181.964C114.324 181.732 114.248 181.506 114.151 181.289C114.054 181.072 113.935 180.865 113.797 180.672" fill="#763CAC"/>
<path d="M108.369 190.067C108.14 190.127 107.903 190.151 107.667 190.139C107.43 190.127 107.197 190.079 106.975 189.996C106.753 189.914 106.545 189.798 106.358 189.653C106.171 189.508 106.007 189.335 105.872 189.141C105.789 189.025 105.718 188.9 105.659 188.77C105.601 188.639 105.556 188.504 105.524 188.364C105.493 188.225 105.475 188.082 105.472 187.94C105.469 187.797 105.48 187.654 105.505 187.513C105.509 187.49 105.514 187.467 105.519 187.445C105.524 187.422 105.529 187.399 105.535 187.377C105.541 187.354 105.547 187.332 105.554 187.309C105.56 187.287 105.567 187.265 105.575 187.243L105.63 187.074L105.78 187.186C105.866 187.249 105.955 187.309 106.047 187.364C106.138 187.42 106.231 187.471 106.327 187.519C106.423 187.566 106.52 187.61 106.62 187.649C106.719 187.689 106.82 187.724 106.922 187.754L107.034 187.787L107.024 187.899C107.019 187.976 107.027 188.052 107.048 188.126C107.058 188.163 107.072 188.199 107.088 188.233C107.105 188.267 107.124 188.3 107.147 188.331C107.187 188.39 107.237 188.442 107.293 188.486C107.349 188.529 107.412 188.564 107.479 188.589C107.546 188.614 107.616 188.628 107.687 188.631C107.759 188.635 107.83 188.628 107.899 188.61C107.915 188.606 107.93 188.601 107.946 188.595C107.961 188.59 107.977 188.584 107.992 188.577C108.007 188.571 108.021 188.564 108.036 188.556C108.051 188.548 108.065 188.54 108.078 188.531L111.002 186.665C111.038 186.643 111.072 186.617 111.102 186.587C111.132 186.558 111.159 186.525 111.183 186.49C111.207 186.455 111.227 186.418 111.243 186.378C111.258 186.339 111.27 186.299 111.278 186.257C111.285 186.214 111.288 186.171 111.287 186.128C111.286 186.085 111.28 186.042 111.271 186C111.261 185.958 111.248 185.917 111.23 185.878C111.212 185.839 111.19 185.801 111.165 185.766C111.124 185.708 111.075 185.656 111.019 185.612C110.962 185.569 110.899 185.534 110.833 185.509C110.766 185.484 110.696 185.47 110.624 185.466C110.553 185.463 110.482 185.47 110.413 185.488C110.397 185.492 110.381 185.497 110.366 185.502C110.35 185.508 110.335 185.514 110.32 185.52C110.305 185.527 110.29 185.534 110.276 185.542C110.261 185.549 110.247 185.558 110.233 185.567L109.11 186.279C109.065 186.308 109.018 186.336 108.97 186.361C108.922 186.387 108.873 186.41 108.823 186.432C108.774 186.454 108.723 186.474 108.672 186.492C108.621 186.51 108.569 186.526 108.516 186.54C108.288 186.599 108.051 186.623 107.815 186.611C107.579 186.599 107.346 186.55 107.125 186.468C106.903 186.386 106.696 186.271 106.509 186.126C106.322 185.981 106.159 185.809 106.024 185.615C105.941 185.498 105.87 185.374 105.812 185.243C105.753 185.113 105.708 184.977 105.677 184.838C105.646 184.698 105.629 184.556 105.626 184.413C105.622 184.27 105.634 184.128 105.659 183.987C105.709 183.71 105.815 183.447 105.972 183.214C106.13 182.981 106.334 182.783 106.572 182.633L109.505 180.767C109.55 180.738 109.597 180.711 109.644 180.686C109.692 180.66 109.741 180.636 109.79 180.615C109.839 180.593 109.89 180.573 109.941 180.555C109.991 180.537 110.043 180.521 110.095 180.507C110.324 180.447 110.561 180.423 110.797 180.435C111.034 180.447 111.267 180.495 111.489 180.578C111.711 180.66 111.919 180.776 112.106 180.921C112.293 181.066 112.456 181.239 112.591 181.433C112.674 181.549 112.746 181.673 112.804 181.804C112.863 181.934 112.908 182.07 112.94 182.21C112.971 182.349 112.989 182.491 112.992 182.634C112.996 182.777 112.985 182.92 112.959 183.061C112.955 183.084 112.95 183.107 112.945 183.13C112.94 183.153 112.935 183.176 112.929 183.198C112.923 183.221 112.917 183.244 112.91 183.266C112.904 183.289 112.897 183.311 112.89 183.334L112.834 183.502L112.684 183.39C112.598 183.326 112.509 183.267 112.417 183.211C112.326 183.155 112.232 183.103 112.136 183.055C111.944 182.959 111.744 182.88 111.539 182.817L111.427 182.785L111.437 182.673C111.44 182.634 111.44 182.596 111.436 182.557C111.433 182.519 111.426 182.481 111.416 182.444C111.406 182.407 111.393 182.371 111.376 182.336C111.36 182.301 111.34 182.268 111.318 182.237C111.277 182.179 111.227 182.128 111.171 182.086C111.115 182.043 111.053 182.009 110.986 181.985C110.853 181.937 110.707 181.93 110.57 181.966C110.554 181.971 110.538 181.975 110.523 181.981C110.508 181.986 110.492 181.992 110.477 181.999C110.462 182.005 110.447 182.013 110.433 182.02C110.418 182.028 110.404 182.036 110.39 182.045L107.461 183.907C107.425 183.93 107.392 183.956 107.362 183.985C107.332 184.015 107.304 184.047 107.281 184.082C107.257 184.117 107.237 184.154 107.221 184.193C107.205 184.233 107.194 184.273 107.186 184.315C107.179 184.357 107.176 184.401 107.177 184.444C107.179 184.53 107.199 184.615 107.234 184.694C107.252 184.734 107.273 184.771 107.298 184.806C107.339 184.864 107.388 184.916 107.444 184.959C107.5 185.003 107.562 185.037 107.628 185.062C107.762 185.112 107.907 185.12 108.045 185.085C108.061 185.08 108.076 185.076 108.092 185.07C108.107 185.065 108.123 185.059 108.138 185.052C108.153 185.046 108.167 185.038 108.182 185.031C108.196 185.023 108.211 185.015 108.224 185.006L109.347 184.295C109.393 184.265 109.44 184.238 109.488 184.212C109.536 184.186 109.585 184.162 109.635 184.14C109.684 184.119 109.735 184.099 109.786 184.081C109.838 184.063 109.89 184.047 109.942 184.033C110.172 183.973 110.408 183.949 110.645 183.961C110.881 183.973 111.114 184.021 111.336 184.103C111.558 184.185 111.766 184.301 111.953 184.446C112.14 184.591 112.304 184.763 112.439 184.958C112.522 185.074 112.593 185.199 112.651 185.329C112.71 185.459 112.755 185.595 112.787 185.735C112.818 185.874 112.836 186.016 112.839 186.159C112.843 186.302 112.832 186.445 112.807 186.586C112.782 186.724 112.743 186.859 112.69 186.989C112.638 187.119 112.572 187.243 112.493 187.359C112.415 187.475 112.325 187.583 112.224 187.681C112.123 187.778 112.013 187.865 111.894 187.94L108.964 189.805C108.918 189.835 108.871 189.862 108.824 189.888C108.776 189.913 108.727 189.937 108.677 189.959C108.627 189.981 108.576 190.001 108.525 190.019C108.474 190.037 108.422 190.053 108.369 190.067" fill="#282C33" fill-opacity="0.8"/>
<path d="M616.188 109.134C616.5 108.956 616.906 108.955 617.217 109.134C618.783 110.019 620.35 110.903 621.917 111.789C622.211 111.955 622.408 112.282 622.405 112.622V117.947C622.407 118.301 622.191 118.636 621.88 118.798C620.319 119.679 618.758 120.56 617.197 121.44C616.879 121.622 616.465 121.608 616.157 121.411C615.689 121.14 615.22 120.87 614.752 120.599C614.656 120.542 614.548 120.497 614.481 120.404C614.54 120.323 614.647 120.313 614.734 120.278C614.929 120.216 615.109 120.116 615.288 120.02C615.334 119.988 615.389 120 615.433 120.028C615.833 120.258 616.23 120.494 616.631 120.721C616.717 120.771 616.804 120.705 616.877 120.664C618.409 119.798 619.943 118.935 621.475 118.069C621.532 118.042 621.563 117.982 621.558 117.92C621.56 116.163 621.559 114.406 621.559 112.649C621.565 112.579 621.525 112.514 621.461 112.485C619.905 111.609 618.35 110.731 616.794 109.855C616.767 109.836 616.735 109.826 616.703 109.826C616.67 109.826 616.638 109.836 616.611 109.854C615.055 110.731 613.501 111.609 611.945 112.486C611.881 112.515 611.839 112.578 611.846 112.649C611.846 114.406 611.846 116.163 611.846 117.92C611.844 117.95 611.85 117.981 611.865 118.007C611.88 118.033 611.903 118.055 611.931 118.068C612.346 118.303 612.762 118.537 613.177 118.771C613.411 118.897 613.698 118.972 613.956 118.876C614.184 118.794 614.343 118.562 614.339 118.32C614.341 116.574 614.338 114.827 614.34 113.081C614.335 113.003 614.408 112.939 614.484 112.947C614.683 112.945 614.883 112.944 615.082 112.947C615.166 112.945 615.223 113.029 615.213 113.107C615.212 114.864 615.215 116.622 615.211 118.38C615.212 118.848 615.019 119.358 614.586 119.587C614.052 119.863 613.393 119.805 612.865 119.54C612.409 119.312 611.973 119.043 611.525 118.799C611.213 118.637 610.998 118.3 611 117.947V112.622C610.997 112.275 611.202 111.942 611.505 111.778C613.066 110.897 614.627 110.015 616.188 109.134Z" fill="#4338D9" fill-opacity="0.493421"/>
<path d="M617.55 112.823C618.231 112.779 618.959 112.797 619.572 113.132C620.047 113.389 620.309 113.929 620.318 114.456C620.305 114.527 620.23 114.566 620.162 114.561C619.965 114.561 619.767 114.564 619.57 114.56C619.486 114.563 619.437 114.486 619.427 114.412C619.37 114.16 619.232 113.91 618.995 113.788C618.631 113.606 618.208 113.615 617.811 113.619C617.521 113.634 617.209 113.659 616.964 113.83C616.775 113.959 616.718 114.22 616.785 114.43C616.848 114.581 617.023 114.629 617.165 114.674C617.985 114.889 618.855 114.867 619.66 115.15C619.993 115.265 620.319 115.489 620.433 115.838C620.582 116.305 620.517 116.864 620.184 117.24C619.914 117.548 619.521 117.717 619.129 117.808C618.608 117.924 618.067 117.927 617.538 117.875C617.04 117.819 616.522 117.688 616.137 117.349C615.809 117.063 615.648 116.619 615.664 116.19C615.668 116.117 615.74 116.067 615.81 116.073C616.008 116.071 616.207 116.07 616.406 116.073C616.486 116.067 616.545 116.136 616.549 116.211C616.585 116.451 616.676 116.703 616.885 116.845C617.29 117.106 617.797 117.088 618.26 117.096C618.643 117.079 619.074 117.074 619.387 116.82C619.552 116.676 619.601 116.434 619.556 116.226C619.508 116.05 619.324 115.968 619.166 115.914C618.356 115.658 617.477 115.751 616.675 115.461C616.349 115.346 616.034 115.129 615.909 114.794C615.735 114.321 615.815 113.735 616.182 113.372C616.541 113.012 617.058 112.873 617.55 112.823V112.823Z" fill="#4338D9" fill-opacity="0.493421"/>
<path d="M667 154H679.568V166.568H667V154Z" fill="#4338D9" fill-opacity="0.74"/>
<path d="M673.035 158.654H673.638V159.695H672.008V164.326L671.964 164.337C671.906 164.353 671.13 164.353 670.963 164.335L670.829 164.324V159.695H669.199V158.654L669.716 158.648C669.999 158.644 670.725 158.644 671.33 158.648C671.935 158.652 672.701 158.654 673.035 158.654V158.654ZM677.636 163.835C677.396 164.088 677.139 164.229 676.711 164.345C676.524 164.396 676.493 164.398 676.073 164.396C675.653 164.394 675.619 164.394 675.415 164.341C674.887 164.206 674.46 163.941 674.17 163.566C674.087 163.46 673.952 163.24 673.952 163.212C673.952 163.204 673.971 163.187 673.997 163.175C674.023 163.163 674.076 163.13 674.119 163.104C674.162 163.079 674.241 163.032 674.294 163.004C674.347 162.977 674.5 162.886 674.633 162.806C674.767 162.725 674.889 162.66 674.902 162.66C674.916 162.66 674.942 162.688 674.961 162.721C675.079 162.92 675.354 163.173 675.548 163.259C675.668 163.31 675.933 163.367 676.061 163.367C676.179 163.367 676.395 163.316 676.511 163.263C676.634 163.206 676.697 163.149 676.772 163.035C676.823 162.955 676.829 162.933 676.827 162.78C676.827 162.639 676.819 162.599 676.78 162.535C676.67 162.354 676.521 162.26 675.916 161.993C675.291 161.716 675.01 161.551 674.783 161.329C674.614 161.164 674.58 161.119 674.474 160.913C674.337 160.647 674.319 160.561 674.317 160.166C674.315 159.889 674.321 159.799 674.351 159.705C674.392 159.563 674.525 159.29 674.586 159.222C674.712 159.074 674.757 159.029 674.845 158.957C675.112 158.737 675.529 158.591 675.927 158.578C675.973 158.578 676.122 158.585 676.261 158.595C676.662 158.629 676.935 158.727 677.198 158.937C677.396 159.094 677.697 159.463 677.667 159.512C677.648 159.542 676.864 160.064 676.813 160.08C676.782 160.09 676.76 160.078 676.717 160.027C676.45 159.707 676.342 159.638 676.083 159.622C675.898 159.611 675.8 159.632 675.676 159.715C675.546 159.801 675.484 159.933 675.484 160.115C675.486 160.382 675.588 160.508 675.965 160.695C676.208 160.814 676.416 160.913 676.432 160.913C676.456 160.913 676.96 161.164 677.092 161.243C677.705 161.602 677.954 161.971 678.019 162.607C678.066 163.087 677.931 163.524 677.636 163.835V163.835Z" fill="#282C33" fill-opacity="0.8"/>
<path d="M633.055 172H635.568L629.284 182.84L623 172H627.807L629.284 174.514L630.73 172H633.055Z" fill="#763CAC" fill-opacity="0.49"/>
<path d="M623 172L629.284 182.84L635.568 172H633.055L629.284 178.504L625.482 172H623Z" fill="#763CAC" fill-opacity="0.49"/>
<path d="M625.482 172L629.284 178.536L633.055 172H630.729L629.284 174.514L627.807 172H625.482Z" fill="#282C33" fill-opacity="0.8"/>
<path d="M597.284 227C595.608 227 594.561 227.838 594.142 229.513C594.77 228.675 595.504 228.361 596.341 228.571C596.82 228.69 597.161 229.037 597.54 229.421C598.156 230.046 598.869 230.769 600.426 230.769C602.102 230.769 603.149 229.932 603.568 228.256C602.94 229.094 602.207 229.408 601.369 229.199C600.891 229.079 600.549 228.733 600.171 228.349C599.555 227.724 598.842 227 597.284 227V227ZM594.142 230.769C592.466 230.769 591.419 231.607 591 233.282C591.628 232.445 592.362 232.131 593.199 232.34C593.677 232.46 594.019 232.806 594.397 233.19C595.013 233.815 595.727 234.539 597.284 234.539C598.96 234.539 600.007 233.701 600.426 232.026C599.798 232.864 599.065 233.178 598.227 232.968C597.749 232.849 597.407 232.502 597.029 232.118C596.413 231.493 595.7 230.769 594.142 230.769V230.769Z" fill="#763CAC"/>
<path d="M103.783 98.0343L104.119 98.6642C104.194 98.7805 104.276 98.8834 104.372 98.9792C104.654 99.2578 104.917 99.5551 105.159 99.8691C105.727 100.615 106.111 101.444 106.384 102.34C106.549 102.888 106.638 103.449 106.644 104.017C106.672 105.715 106.09 107.173 104.916 108.384C104.725 108.576 104.519 108.753 104.3 108.911C104.184 108.911 104.129 108.822 104.081 108.74C103.993 108.588 103.935 108.421 103.909 108.247C103.868 108.042 103.841 107.836 103.854 107.624V107.529C103.845 107.508 103.742 98.0826 103.783 98.0343V98.0343Z" fill="#4338D9" fill-opacity="0.31"/>
<path d="M103.783 98.0135C103.77 97.986 103.756 98.0068 103.742 98.0202C103.749 98.1576 103.701 98.2802 103.626 98.3972C103.543 98.5135 103.434 98.6026 103.325 98.6984C102.716 99.2255 102.237 99.8621 101.853 100.574C101.342 101.532 101.079 102.559 101.005 103.641C100.971 104.031 101.128 105.407 101.251 105.804C101.586 106.858 102.189 107.741 102.969 108.508C103.161 108.692 103.366 108.863 103.578 109.028C103.64 109.028 103.646 108.973 103.66 108.932C103.687 108.845 103.708 108.756 103.722 108.665L103.86 107.639L103.783 98.0135Z" fill="#4338D9" fill-opacity="0.493421"/>
<path d="M104.119 109.328C104.132 109.171 104.208 109.041 104.29 108.911C104.207 108.877 104.146 108.809 104.098 108.733C104.057 108.661 104.023 108.586 103.996 108.507C103.9 108.22 103.88 107.918 103.852 107.624V107.447C103.818 107.474 103.811 107.707 103.811 107.741C103.791 108.052 103.75 108.36 103.688 108.665C103.667 108.788 103.654 108.911 103.578 109.021C103.578 109.035 103.578 109.048 103.585 109.069C103.708 109.432 103.742 109.801 103.762 110.178V110.315C103.762 110.48 103.756 110.445 103.892 110.5C103.947 110.52 104.008 110.527 104.063 110.568C104.105 110.568 104.111 110.534 104.111 110.507L104.091 110.281V109.651C104.084 109.541 104.105 109.432 104.118 109.329L104.119 109.328Z" fill="#4338D9" fill-opacity="0.493421"/>
<path d="M46.5683 121H34V133.568H46.5683V121Z" fill="#4338D9" fill-opacity="0.63"/>
<path d="M42.4427 130.819C42.6959 131.232 43.0253 131.536 43.6078 131.536C44.0971 131.536 44.4098 131.292 44.4098 130.954C44.4098 130.549 44.0886 130.405 43.5499 130.17L43.2547 130.043C42.4024 129.68 41.8362 129.225 41.8362 128.263C41.8362 127.378 42.5111 126.703 43.5659 126.703C44.3168 126.703 44.8566 126.965 45.2457 127.649L44.326 128.239C44.1235 127.876 43.905 127.733 43.5659 127.733C43.22 127.733 43.0007 127.953 43.0007 128.239C43.0007 128.594 43.2202 128.737 43.7269 128.957L44.0221 129.083C45.0256 129.513 45.5922 129.952 45.5922 130.938C45.5922 132.002 44.7569 132.584 43.6351 132.584C42.5383 132.584 41.8297 132.062 41.4829 131.377L42.4427 130.819ZM38.2706 130.921C38.4562 131.251 38.6249 131.529 39.0307 131.529C39.4187 131.529 39.6635 131.377 39.6635 130.787V126.771H40.8446V130.803C40.8446 132.026 40.1276 132.582 39.081 132.582C38.1354 132.582 37.5878 132.093 37.3093 131.503L38.2706 130.921Z" fill="#282C33" fill-opacity="0.8"/>
<defs>
<filter id="filter0_d_541_52" x="292.265" y="76.6334" width="77.4706" height="84.7333" filterUnits="userSpaceOnUse" color-interpolation-filters="sRGB">
<feFlood flood-opacity="0" result="BackgroundImageFix"/>
<feColorMatrix in="SourceAlpha" type="matrix" values="0 0 0 0 0 0 0 0 0 0 0 0 0 0 0 0 0 0 127 0" result="hardAlpha"/>
<feOffset dy="4"/>
<feGaussianBlur stdDeviation="6"/>
<feComposite in2="hardAlpha" operator="out"/>
<feColorMatrix type="matrix" values="0 0 0 0 1 0 0 0 0 1 0 0 0 0 1 0 0 0 0.5 0"/>
<feBlend mode="normal" in2="BackgroundImageFix" result="effect1_dropShadow_541_52"/>
<feBlend mode="normal" in="SourceGraphic" in2="effect1_dropShadow_541_52" result="shape"/>
</filter>
<radialGradient id="paint0_radial_541_52" cx="0" cy="0" r="1" gradientUnits="userSpaceOnUse" gradientTransform="translate(340.154 153.829) rotate(90) scale(124.171 203.942)">
<stop offset="0.0001" stop-color="#4338D9" stop-opacity="0.26"/>
<stop offset="0.276042" stop-color="#763CAC" stop-opacity="0.25"/>
<stop offset="0.942708" stop-color="#320F85" stop-opacity="0"/>
</radialGradient>
<linearGradient id="paint1_linear_541_52" x1="331.124" y1="47.7185" x2="331.124" y2="183.178" gradientUnits="userSpaceOnUse">
<stop stop-color="#301080" stop-opacity="0.51"/>
<stop offset="1" stop-color="#7840AD" stop-opacity="0.36"/>
</linearGradient>
<linearGradient id="paint2_linear_541_52" x1="331.5" y1="54.4915" x2="331.5" y2="256.928" gradientUnits="userSpaceOnUse">
<stop stop-opacity="0"/>
<stop offset="0.390625" stop-color="#4338D9" stop-opacity="0.493421"/>
<stop offset="0.8125" stop-color="#763CAC"/>
</linearGradient>
<linearGradient id="paint3_linear_541_52" x1="334.886" y1="54.4915" x2="334.886" y2="256.928" gradientUnits="userSpaceOnUse">
<stop stop-opacity="0"/>
<stop offset="0.390625" stop-color="#4338D9" stop-opacity="0.493421"/>
<stop offset="0.8125" stop-color="#763CAC"/>
</linearGradient>
<linearGradient id="paint4_linear_541_52" x1="342.788" y1="54.4915" x2="342.788" y2="256.928" gradientUnits="userSpaceOnUse">
<stop stop-opacity="0"/>
<stop offset="0.390625" stop-color="#4338D9" stop-opacity="0.493421"/>
<stop offset="0.8125" stop-color="#763CAC"/>
</linearGradient>
<linearGradient id="paint5_linear_541_52" x1="334.886" y1="0.307617" x2="334.886" y2="207.26" gradientUnits="userSpaceOnUse">
<stop offset="0.697917" stop-color="#4338D9" stop-opacity="0"/>
<stop offset="1" stop-color="#763CAC"/>
</linearGradient>
<linearGradient id="paint6_linear_541_52" x1="334.51" y1="68.79" x2="334.51" y2="192.209" gradientUnits="userSpaceOnUse">
<stop offset="0.328125" stop-color="#4338D9" stop-opacity="0"/>
<stop offset="1" stop-color="#763CAC"/>
</linearGradient>
</defs>
</svg>
